<?xml version="1.0" encoding="UTF-8" standalone="no"?>
<!-- Created with Inkscape (http://www.inkscape.org/) -->

<svg
   xmlns:dc="http://purl.org/dc/elements/1.1/"
   xmlns:cc="http://creativecommons.org/ns#"
   xmlns:rdf="http://www.w3.org/1999/02/22-rdf-syntax-ns#"
   xmlns:svg="http://www.w3.org/2000/svg"
   xmlns="http://www.w3.org/2000/svg"
   xmlns:sodipodi="http://sodipodi.sourceforge.net/DTD/sodipodi-0.dtd"
   xmlns:inkscape="http://www.inkscape.org/namespaces/inkscape"
   width="512"
   height="512"
   id="svg3001"
   version="1.1"
   inkscape:version="0.48.4 r9939"
   sodipodi:docname="ic_launcher.svg"
   inkscape:export-filename="C:\Users\Plastemetz\Documents\zeroxcafe\data\ic_launcher.png"
   inkscape:export-xdpi="90"
   inkscape:export-ydpi="90">
  <defs
     id="defs3003" />
  <sodipodi:namedview
     id="base"
     pagecolor="#ffffff"
     bordercolor="#666666"
     borderopacity="1.0"
     inkscape:pageopacity="0.0"
     inkscape:pageshadow="2"
     inkscape:zoom="0.48613591"
     inkscape:cx="484.8045"
     inkscape:cy="265.23446"
     inkscape:current-layer="layer1"
     showgrid="true"
     inkscape:document-units="px"
     inkscape:grid-bbox="true"
     width="512px"
     inkscape:window-width="1366"
     inkscape:window-height="716"
     inkscape:window-x="-8"
     inkscape:window-y="22"
     inkscape:window-maximized="1" />
  <metadata
     id="metadata3006">
    <rdf:RDF>
      <cc:Work
         rdf:about="">
        <dc:format>image/svg+xml</dc:format>
        <dc:type
           rdf:resource="http://purl.org/dc/dcmitype/StillImage" />
        <dc:title></dc:title>
      </cc:Work>
    </rdf:RDF>
  </metadata>
  <g
     id="layer1"
     inkscape:label="Layer 1"
     inkscape:groupmode="layer"
     transform="translate(0,1.5742187e-4)">
    <rect
       style="fill:#ffffff;fill-opacity:1;stroke:#8bd000;stroke-width:0;stroke-miterlimit:4;stroke-opacity:1;stroke-dasharray:none"
       id="rect3009-7"
       width="511.43109"
       height="511.43112"
       x="0.39788705"
       y="0.33978119"
       rx="69.264435"
       ry="87.749893" />
    <rect
       style="fill:#000000;fill-opacity:1;stroke:#8bd000;stroke-width:0;stroke-miterlimit:4;stroke-opacity:1;stroke-dasharray:none"
       id="rect3009"
       width="484.43243"
       height="483.40393"
       x="13.370747"
       y="16.253708"
       rx="65.607948"
       ry="82.941071" />
    <g
       transform="translate(-15.427784,31.88393)"
       style="font-size:40px;font-style:normal;font-weight:normal;line-height:125%;letter-spacing:0px;word-spacing:0px;fill:#ffffff;fill-opacity:1;stroke:none;font-family:Sans"
       id="flowRoot3779">
      <path
         d="m 155.31445,225.44828 c -1e-4,10.67063 -0.84157,20.41021 -2.52441,29.21875 -1.68304,8.80863 -4.47601,16.38186 -8.37891,22.71973 -3.90308,6.3379 -9.00562,11.24349 -15.30761,14.71679 -6.30216,3.47331 -14.07233,5.20996 -23.31055,5.20997 -8.737026,-10e-6 -16.095417,-1.55762 -22.075197,-4.67286 -5.979844,-3.11522 -10.795919,-7.69855 -14.448242,-13.75 -3.652358,-6.05141 -6.248384,-13.49932 -7.788086,-22.34375 -1.539722,-8.84435 -2.309578,-18.99571 -2.30957,-30.4541 -8e-6,-10.59888 0.859366,-20.32055 2.578125,-29.16504 1.718738,-8.84429 4.511704,-16.43543 8.378906,-22.77343 3.867165,-6.33777 8.951796,-11.24336 15.253906,-14.7168 6.302044,-3.47317 14.036411,-5.20982 23.203128,-5.20996 8.80853,1.4e-4 16.20272,1.55775 22.18261,4.67285 5.97974,3.11537 10.79581,7.6987 14.44825,13.75 3.65224,6.05155 6.24827,13.49946 7.78808,22.34375 1.53961,8.84449 2.30947,18.99585 2.30957,30.4541 z m -18.90625,1.28906 c -8e-5,-6.94654 -0.25073,-13.177 -0.75195,-18.6914 -0.50139,-5.51423 -1.23543,-10.38402 -2.20215,-14.60938 -0.96688,-4.22515 -2.22013,-7.85959 -3.75976,-10.90332 -1.53979,-3.0435 -3.38387,-5.55001 -5.53223,-7.51953 -2.14851,-1.96928 -4.60131,-3.40157 -7.3584,-4.29687 -2.75722,-0.89506 -5.85455,-1.34265 -9.29199,-1.34278 -6.08729,1.3e-4 -11.028692,1.43242 -14.82422,4.29688 -3.79561,2.8647 -6.785516,6.8035 -8.969727,11.8164 -2.184274,5.01313 -3.670276,10.88552 -4.458007,17.61719 -0.787788,6.73186 -1.181668,13.96492 -1.181641,21.69922 -2.7e-5,10.38417 0.537082,19.21066 1.611328,26.47949 1.07419,7.26892 2.775034,13.19502 5.102539,17.77832 2.327438,4.58336 5.299441,7.91343 8.916016,9.99024 3.61649,2.07683 8.002882,3.11524 13.159182,3.11523 4.01035,10e-6 7.53737,-0.64452 10.58105,-1.93359 3.04355,-1.28905 5.65748,-3.13312 7.8418,-5.53223 2.18417,-2.39906 3.99243,-5.28155 5.4248,-8.64746 1.43221,-3.36585 2.57805,-7.08981 3.4375,-11.17187 0.8593,-4.08199 1.45011,-8.50419 1.77246,-13.26661 0.32219,-4.76231 0.48332,-9.72161 0.4834,-14.87793 z"
         style="font-size:220px;font-variant:normal;font-stretch:normal;font-family:Calibri;-inkscape-font-specification:Calibri;fill:#ffffff"
         id="path3826" />
      <path
         d="m 252.85352,290.54594 c 0.57282,1.00261 0.85928,1.84408 0.85937,2.52441 -9e-5,0.68034 -0.34026,1.23535 -1.02051,1.66504 -0.68042,0.42969 -1.71884,0.73405 -3.11523,0.91309 -1.39657,0.17903 -3.20484,0.26855 -5.42481,0.26855 -2.14851,0 -3.84936,-0.0537 -5.10254,-0.16113 -1.25333,-0.10742 -2.25593,-0.28646 -3.00781,-0.53711 -0.75202,-0.25065 -1.32494,-0.57292 -1.71875,-0.9668 -0.39395,-0.39388 -0.73412,-0.84147 -1.02051,-1.34277 l -23.20312,-38.34961 -23.0957,38.34961 c -0.28649,0.5013 -0.62665,0.94889 -1.02051,1.34277 -0.3939,0.39388 -0.96682,0.71615 -1.71875,0.9668 -0.75198,0.25065 -1.73667,0.42969 -2.9541,0.53711 -1.21747,0.10742 -2.82879,0.16113 -4.83399,0.16113 -2.07683,0 -3.77768,-0.0895 -5.10254,-0.26855 -1.32487,-0.17904 -2.29167,-0.4834 -2.90039,-0.91309 -0.60873,-0.42969 -0.89518,-0.9847 -0.85937,-1.66504 0.0358,-0.68033 0.37597,-1.5218 1.02051,-2.52441 l 30.07812,-47.15821 -28.4668,-45.43945 c -0.57292,-1.0025 -0.87728,-1.84398 -0.91308,-2.52441 -0.0358,-0.68024 0.28645,-1.25316 0.96679,-1.71875 0.68034,-0.4654 1.71875,-0.76976 3.11524,-0.91309 1.39647,-0.14313 3.24055,-0.21474 5.53223,-0.21484 2.0768,1e-4 3.74184,0.0538 4.99511,0.16113 1.25324,0.10752 2.23794,0.26866 2.9541,0.4834 0.71613,0.21494 1.25323,0.5014 1.61133,0.85937 0.35805,0.35818 0.68032,0.78786 0.9668,1.28907 l 22.02148,35.98632 22.34375,-35.98632 c 0.28639,-0.42959 0.60866,-0.82347 0.9668,-1.18164 0.358,-0.35798 0.8414,-0.66234 1.4502,-0.91309 0.60865,-0.25055 1.46802,-0.42959 2.57812,-0.53711 1.10995,-0.10732 2.63176,-0.16103 4.56543,-0.16113 2.07674,1e-4 3.77759,0.0717 5.10254,0.21484 1.32478,0.14333 2.30948,0.41189 2.9541,0.80567 0.64444,0.39398 0.9309,0.94899 0.85938,1.66503 -0.0717,0.71625 -0.42978,1.61143 -1.07422,2.68555 l -28.25196,44.90235 z"
         style="font-size:220px;font-variant:normal;font-stretch:normal;font-family:Calibri;-inkscape-font-specification:Calibri;fill:#ffffff"
         id="path3828" />
    </g>
    <path
       style="fill:#ffffff;stroke:#000000;stroke-width:1px;stroke-linecap:butt;stroke-linejoin:miter;stroke-opacity:1"
       d="m 269.47197,324.80955 172.01979,0.25713 c 6.12709,-0.66815 4.55529,-6.8355 6.42824,-10.54232 l -186.16192,0.25713 c 1.76044,4.09427 0.94667,10.32978 7.71389,10.02806 z"
       id="path3787"
       inkscape:connector-curvature="0"
       transform="translate(0,-1.5742187e-4)"
       sodipodi:nodetypes="ccccc" />
    <path
       style="fill:#ffffff;stroke:#000000;stroke-width:1px;stroke-linecap:butt;stroke-linejoin:miter;stroke-opacity:1"
       d="m 318.18181,309.09075 66.9091,0.72728 C 405.41729,289.37087 411.51372,264.83793 416,241.09075 l -125.46525,-0.72728 c 4.15748,26.6528 9.45637,53.06831 27.64706,68.72728 z"
       id="path3791"
       inkscape:connector-curvature="0"
       sodipodi:nodetypes="ccccc" />
    <path
       style="fill:none;stroke:#ffffff;stroke-width:8;stroke-linecap:butt;stroke-linejoin:miter;stroke-miterlimit:4;stroke-opacity:1;stroke-dasharray:none"
       d="m 407.69277,253.85607 c 8.60505,2.46572 22.29194,1.37727 24.42732,9.8995 2.19649,8.76612 -10.07503,15.47464 -17.35626,20.8275 -7.29307,5.36156 -30.73497,23.22176 -25.09756,10.36965 z"
       id="path3797"
       inkscape:connector-curvature="0"
       sodipodi:nodetypes="caasc" />
    <path
       style="fill:#ffffff;stroke:#000000;stroke-width:1px;stroke-linecap:butt;stroke-linejoin:miter;stroke-opacity:1"
       d="m 321.45454,230 c -5.94185,10.57284 7.96656,-4.17265 25.27274,-25.27272 5.04329,-6.14888 -14.39276,-11.86408 -13.45456,-21.27274 0.95762,-9.60336 16.00985,-29.16796 9.81819,-23.81818 -9.63733,8.32694 -20,18.72727 -20,18.72727 -4.86758,9.66209 2.3825,15.02091 8,21.81819 5.49571,6.64991 -8.31731,27.47107 -9.63637,29.81818 z"
       id="path3801"
       inkscape:connector-curvature="0"
       transform="translate(0,-1.5742187e-4)"
       sodipodi:nodetypes="sssscss" />
    <path
       style="fill:#ffffff;stroke:#000000;stroke-width:1.47193956px;stroke-linecap:butt;stroke-linejoin:miter;stroke-opacity:1"
       d="m 351.04099,221.9903 c -10.72812,12.68732 14.38376,-5.00715 45.63036,-30.32706 9.10575,-7.37861 -25.98638,-14.2368 -24.29243,-25.52711 1.72899,-11.52396 28.90605,-35.00132 17.7269,-28.58163 -17.40037,9.99226 -36.11034,22.47258 -36.11034,22.47258 -8.78851,11.59443 4.30164,18.02496 14.44414,26.18165 9.92259,7.97983 -15.01705,32.96505 -17.39863,35.78157 z"
       id="path3801-1"
       inkscape:connector-curvature="0"
       sodipodi:nodetypes="sssscss" />
  </g>
</svg>
