<?xml version="1.0" encoding="UTF-8" standalone="no"?>
<!-- Created with Inkscape (http://www.inkscape.org/) -->

<svg
   xmlns:dc="http://purl.org/dc/elements/1.1/"
   xmlns:cc="http://creativecommons.org/ns#"
   xmlns:rdf="http://www.w3.org/1999/02/22-rdf-syntax-ns#"
   xmlns:svg="http://www.w3.org/2000/svg"
   xmlns="http://www.w3.org/2000/svg"
   xmlns:sodipodi="http://sodipodi.sourceforge.net/DTD/sodipodi-0.dtd"
   xmlns:inkscape="http://www.inkscape.org/namespaces/inkscape"
   width="1024"
   height="500"
   id="svg3001"
   version="1.1"
   inkscape:version="0.48.5 r10040"
   sodipodi:docname="feature_de.svg"
   inkscape:export-filename="C:\Users\Plastemetz\Documents\zeroxcafe\data\ic_launcher.png"
   inkscape:export-xdpi="90"
   inkscape:export-ydpi="90">
  <defs
     id="defs3003" />
  <sodipodi:namedview
     id="base"
     pagecolor="#ffffff"
     bordercolor="#666666"
     borderopacity="1.0"
     inkscape:pageopacity="0.0"
     inkscape:pageshadow="2"
     inkscape:zoom="0.48613591"
     inkscape:cx="484.8045"
     inkscape:cy="265.23446"
     inkscape:current-layer="layer1"
     showgrid="true"
     inkscape:document-units="px"
     inkscape:grid-bbox="true"
     width="512px"
     inkscape:window-width="1366"
     inkscape:window-height="706"
     inkscape:window-x="-8"
     inkscape:window-y="32"
     inkscape:window-maximized="1" />
  <metadata
     id="metadata3006">
    <rdf:RDF>
      <cc:Work
         rdf:about="">
        <dc:format>image/svg+xml</dc:format>
        <dc:type
           rdf:resource="http://purl.org/dc/dcmitype/StillImage" />
        <dc:title></dc:title>
      </cc:Work>
    </rdf:RDF>
  </metadata>
  <g
     id="layer1"
     inkscape:label="Layer 1"
     inkscape:groupmode="layer"
     transform="translate(0,-11.999843)">
    <rect
       style="fill:#000000;stroke:none"
       id="rect3027"
       width="1024"
       height="500"
       x="0"
       y="11.999847" />
    <rect
       style="fill:#ffffff;fill-opacity:1;stroke:#8bd000;stroke-width:0;stroke-miterlimit:4;stroke-opacity:1;stroke-dasharray:none"
       id="rect3009-7"
       width="320.12656"
       height="320.12659"
       x="74.451256"
       y="94.963524"
       rx="43.355568"
       ry="54.926407" />
    <rect
       style="fill:#000000;fill-opacity:1;stroke:#8bd000;stroke-width:0;stroke-miterlimit:4;stroke-opacity:1;stroke-dasharray:none"
       id="rect3009"
       width="303.22696"
       height="302.58319"
       x="82.571518"
       y="104.92474"
       rx="41.066814"
       ry="51.916359" />
    <g
       transform="matrix(0.62594272,0,0,0.62594272,64.545289,114.70836)"
       style="font-size:40px;font-style:normal;font-weight:normal;line-height:125%;letter-spacing:0px;word-spacing:0px;fill:#ffffff;fill-opacity:1;stroke:none;font-family:Sans"
       id="flowRoot3779">
      <path
         d="m 155.31445,225.44828 c -1e-4,10.67063 -0.84157,20.41021 -2.52441,29.21875 -1.68304,8.80863 -4.47601,16.38186 -8.37891,22.71973 -3.90308,6.3379 -9.00562,11.24349 -15.30761,14.71679 -6.30216,3.47331 -14.07233,5.20996 -23.31055,5.20997 -8.737026,-10e-6 -16.095417,-1.55762 -22.075197,-4.67286 -5.979844,-3.11522 -10.795919,-7.69855 -14.448242,-13.75 -3.652358,-6.05141 -6.248384,-13.49932 -7.788086,-22.34375 -1.539722,-8.84435 -2.309578,-18.99571 -2.30957,-30.4541 -8e-6,-10.59888 0.859366,-20.32055 2.578125,-29.16504 1.718738,-8.84429 4.511704,-16.43543 8.378906,-22.77343 3.867165,-6.33777 8.951796,-11.24336 15.253906,-14.7168 6.302044,-3.47317 14.036411,-5.20982 23.203128,-5.20996 8.80853,1.4e-4 16.20272,1.55775 22.18261,4.67285 5.97974,3.11537 10.79581,7.6987 14.44825,13.75 3.65224,6.05155 6.24827,13.49946 7.78808,22.34375 1.53961,8.84449 2.30947,18.99585 2.30957,30.4541 z m -18.90625,1.28906 c -8e-5,-6.94654 -0.25073,-13.177 -0.75195,-18.6914 -0.50139,-5.51423 -1.23543,-10.38402 -2.20215,-14.60938 -0.96688,-4.22515 -2.22013,-7.85959 -3.75976,-10.90332 -1.53979,-3.0435 -3.38387,-5.55001 -5.53223,-7.51953 -2.14851,-1.96928 -4.60131,-3.40157 -7.3584,-4.29687 -2.75722,-0.89506 -5.85455,-1.34265 -9.29199,-1.34278 -6.08729,1.3e-4 -11.028692,1.43242 -14.82422,4.29688 -3.79561,2.8647 -6.785516,6.8035 -8.969727,11.8164 -2.184274,5.01313 -3.670276,10.88552 -4.458007,17.61719 -0.787788,6.73186 -1.181668,13.96492 -1.181641,21.69922 -2.7e-5,10.38417 0.537082,19.21066 1.611328,26.47949 1.07419,7.26892 2.775034,13.19502 5.102539,17.77832 2.327438,4.58336 5.299441,7.91343 8.916016,9.99024 3.61649,2.07683 8.002882,3.11524 13.159182,3.11523 4.01035,10e-6 7.53737,-0.64452 10.58105,-1.93359 3.04355,-1.28905 5.65748,-3.13312 7.8418,-5.53223 2.18417,-2.39906 3.99243,-5.28155 5.4248,-8.64746 1.43221,-3.36585 2.57805,-7.08981 3.4375,-11.17187 0.8593,-4.08199 1.45011,-8.50419 1.77246,-13.26661 0.32219,-4.76231 0.48332,-9.72161 0.4834,-14.87793 z"
         style="font-size:220px;font-variant:normal;font-stretch:normal;fill:#ffffff;font-family:Calibri;-inkscape-font-specification:Calibri"
         id="path3826"
         inkscape:connector-curvature="0" />
      <path
         d="m 252.85352,290.54594 c 0.57282,1.00261 0.85928,1.84408 0.85937,2.52441 -9e-5,0.68034 -0.34026,1.23535 -1.02051,1.66504 -0.68042,0.42969 -1.71884,0.73405 -3.11523,0.91309 -1.39657,0.17903 -3.20484,0.26855 -5.42481,0.26855 -2.14851,0 -3.84936,-0.0537 -5.10254,-0.16113 -1.25333,-0.10742 -2.25593,-0.28646 -3.00781,-0.53711 -0.75202,-0.25065 -1.32494,-0.57292 -1.71875,-0.9668 -0.39395,-0.39388 -0.73412,-0.84147 -1.02051,-1.34277 l -23.20312,-38.34961 -23.0957,38.34961 c -0.28649,0.5013 -0.62665,0.94889 -1.02051,1.34277 -0.3939,0.39388 -0.96682,0.71615 -1.71875,0.9668 -0.75198,0.25065 -1.73667,0.42969 -2.9541,0.53711 -1.21747,0.10742 -2.82879,0.16113 -4.83399,0.16113 -2.07683,0 -3.77768,-0.0895 -5.10254,-0.26855 -1.32487,-0.17904 -2.29167,-0.4834 -2.90039,-0.91309 -0.60873,-0.42969 -0.89518,-0.9847 -0.85937,-1.66504 0.0358,-0.68033 0.37597,-1.5218 1.02051,-2.52441 l 30.07812,-47.15821 -28.4668,-45.43945 c -0.57292,-1.0025 -0.87728,-1.84398 -0.91308,-2.52441 -0.0358,-0.68024 0.28645,-1.25316 0.96679,-1.71875 0.68034,-0.4654 1.71875,-0.76976 3.11524,-0.91309 1.39647,-0.14313 3.24055,-0.21474 5.53223,-0.21484 2.0768,1e-4 3.74184,0.0538 4.99511,0.16113 1.25324,0.10752 2.23794,0.26866 2.9541,0.4834 0.71613,0.21494 1.25323,0.5014 1.61133,0.85937 0.35805,0.35818 0.68032,0.78786 0.9668,1.28907 l 22.02148,35.98632 22.34375,-35.98632 c 0.28639,-0.42959 0.60866,-0.82347 0.9668,-1.18164 0.358,-0.35798 0.8414,-0.66234 1.4502,-0.91309 0.60865,-0.25055 1.46802,-0.42959 2.57812,-0.53711 1.10995,-0.10732 2.63176,-0.16103 4.56543,-0.16113 2.07674,1e-4 3.77759,0.0717 5.10254,0.21484 1.32478,0.14333 2.30948,0.41189 2.9541,0.80567 0.64444,0.39398 0.9309,0.94899 0.85938,1.66503 -0.0717,0.71625 -0.42978,1.61143 -1.07422,2.68555 l -28.25196,44.90235 z"
         style="font-size:220px;font-variant:normal;font-stretch:normal;fill:#ffffff;font-family:Calibri;-inkscape-font-specification:Calibri"
         id="path3828"
         inkscape:connector-curvature="0" />
    </g>
    <path
       style="fill:#ffffff;stroke:#000000;stroke-width:0.62594271px;stroke-linecap:butt;stroke-linejoin:miter;stroke-opacity:1"
       d="m 242.87622,298.06292 107.67454,0.16094 c 3.8352,-0.41823 2.85134,-4.27863 4.0237,-6.59889 l -116.52669,0.16095 c 1.10193,2.56278 0.59256,6.46585 4.82845,6.277 z"
       id="path3787"
       inkscape:connector-curvature="0"
       sodipodi:nodetypes="ccccc" />
    <path
       style="fill:#ffffff;stroke:#000000;stroke-width:0.62594271px;stroke-linecap:butt;stroke-linejoin:miter;stroke-opacity:1"
       d="m 273.36579,288.22394 41.88126,0.45523 c 12.72315,-12.79874 16.53917,-28.15496 19.34732,-43.01933 l -78.53406,-0.45524 c 2.60235,16.68312 5.91915,33.21772 17.30548,43.01934 z"
       id="path3791"
       inkscape:connector-curvature="0"
       sodipodi:nodetypes="ccccc" />
    <path
       style="fill:none;stroke:#ffffff;stroke-width:5.00754166;stroke-linecap:butt;stroke-linejoin:miter;stroke-miterlimit:4;stroke-opacity:1;stroke-dasharray:none"
       d="m 329.39452,253.6502 c 5.38627,1.54339 13.95348,0.86209 15.2901,6.19652 1.37488,5.48708 -6.30638,9.68623 -10.86402,13.03682 -4.56504,3.35603 -19.23833,14.53549 -15.70963,6.49081 z"
       id="path3797"
       inkscape:connector-curvature="0"
       sodipodi:nodetypes="caasc" />
    <path
       style="fill:#ffffff;stroke:#000000;stroke-width:0.62594271px;stroke-linecap:butt;stroke-linejoin:miter;stroke-opacity:1"
       d="m 275.41433,238.71757 c -3.71926,6.61799 4.98661,-2.61185 15.81929,-15.81928 3.15681,-3.84885 -9.00904,-7.42624 -8.42179,-13.31552 0.59942,-6.01115 10.02126,-18.25747 6.14563,-14.90882 -6.03241,5.2122 -12.51886,11.72221 -12.51886,11.72221 -3.04682,6.04791 1.49131,9.40223 5.00754,13.65693 3.44001,4.16246 -5.20615,17.19532 -6.03181,18.66448 z"
       id="path3801"
       inkscape:connector-curvature="0"
       sodipodi:nodetypes="sssscss" />
    <path
       style="fill:#ffffff;stroke:#000000;stroke-width:0.92134988px;stroke-linecap:butt;stroke-linejoin:miter;stroke-opacity:1"
       d="m 293.93375,233.70405 c -6.71519,7.94153 9.00341,-3.13419 28.562,-18.983 5.69967,-4.61859 -16.26599,-8.91143 -15.20567,-15.97851 1.08224,-7.21334 18.09353,-21.90882 11.09602,-17.89046 -10.89164,6.25458 -22.603,14.06655 -22.603,14.06655 -5.50111,7.25744 2.69258,11.28259 9.0412,16.3882 6.21098,4.99493 -9.39981,20.63424 -10.89055,22.39722 z"
       id="path3801-1"
       inkscape:connector-curvature="0"
       sodipodi:nodetypes="sssscss" />
    <flowRoot
       xml:space="preserve"
       id="flowRoot3015"
       style="font-size:40px;font-style:normal;font-weight:normal;line-height:125%;letter-spacing:0px;word-spacing:0px;fill:#ffffff;fill-opacity:1;stroke:none;font-family:Sans"
       transform="matrix(1.0846734,0,0,1,-62.967348,28.456147)"><flowRegion
         id="flowRegion3017"><rect
           id="rect3019"
           width="579.92413"
           height="403.17941"
           x="475.17575"
           y="94.763527"
           style="fill:#ffffff" /></flowRegion><flowPara
         id="flowPara3021"
         style="font-size:138.26522826999999000px;font-style:normal;font-variant:normal;font-weight:normal;font-stretch:normal;font-family:Calibri;-inkscape-font-specification:Calibri;fill:#ffffff">0xCAFE</flowPara><flowPara
         id="flowPara3023"
         style="font-style:normal;font-variant:normal;font-weight:normal;font-stretch:normal;font-family:Calibri;-inkscape-font-specification:Calibri;fill:#ffffff">Simple converter</flowPara><flowPara
         style="font-style:normal;font-variant:normal;font-weight:normal;font-stretch:normal;font-family:Calibri;-inkscape-font-specification:Calibri;fill:#ffffff"
         id="flowPara3025">for numeral systems</flowPara></flowRoot>  </g>
</svg>
